<?xml version="1.0" standalone="no"?><!-- Generator: Gravit.io --><svg xmlns="http://www.w3.org/2000/svg" xmlns:xlink="http://www.w3.org/1999/xlink" style="isolation:isolate" viewBox="0 0 45.761 45.761" width="45.761" height="45.761"><defs><clipPath id="_clipPath_8Xvc8k378Qim4XsblhJutu3vh7Sy6P3w"><rect width="45.761" height="45.761"/></clipPath></defs><g clip-path="url(#_clipPath_8Xvc8k378Qim4XsblhJutu3vh7Sy6P3w)"><g><g><path d=" M 27.379 9.192 L 30.818 7.282 C 31.638 7.737 32.669 7.77 33.55 7.281 C 34.909 6.527 35.401 4.812 34.646 3.451 C 33.89 2.091 32.177 1.6 30.817 2.355 C 29.935 2.844 29.42 3.736 29.371 4.673 L 25.329 6.917 C 24.096 6.014 22.575 5.48 20.929 5.48 C 19.283 5.48 17.762 6.014 16.53 6.917 L 12.488 4.674 C 12.439 3.736 11.924 2.845 11.042 2.356 C 9.682 1.601 7.968 2.091 7.213 3.452 C 6.458 4.812 6.948 6.527 8.309 7.282 C 9.19 7.771 10.221 7.738 11.041 7.283 L 14.481 9.193 C 13.882 10.222 13.523 11.406 13.478 12.672 C 15.752 11.536 18.275 10.902 20.929 10.902 C 23.583 10.902 26.105 11.535 28.381 12.672 C 28.336 11.406 27.976 10.221 27.379 9.192 Z " fill="rgb(96,125,139)"/><path d=" M 21.406 11.966 L 21.406 45.761 C 29.06 44.92 35.037 37.676 35.037 28.864 C 35.037 20.051 29.06 12.808 21.406 11.966 Z  M 26.196 16.661 C 27.71 16.661 28.937 17.889 28.937 19.402 C 28.937 20.916 27.708 22.144 26.196 22.144 C 24.681 22.144 23.454 20.916 23.454 19.402 C 23.453 17.887 24.681 16.661 26.196 16.661 Z  M 26.196 41.069 C 24.681 41.069 23.454 39.84 23.454 38.328 C 23.454 36.813 24.682 35.586 26.196 35.586 C 27.71 35.586 28.937 36.815 28.937 38.328 C 28.937 39.841 27.709 41.069 26.196 41.069 Z  M 30.511 31.074 C 28.996 31.074 27.769 29.845 27.769 28.333 C 27.769 26.819 28.997 25.591 30.511 25.591 C 32.024 25.591 33.251 26.82 33.251 28.333 C 33.251 29.846 32.024 31.074 30.511 31.074 Z " fill="rgb(76,175,80)"/><path d=" M 6.822 28.864 C 6.822 37.676 12.801 44.921 20.454 45.761 L 20.454 11.966 C 12.8 12.808 6.822 20.051 6.822 28.864 Z  M 11.349 31.074 C 9.836 31.074 8.608 29.845 8.608 28.333 C 8.608 26.819 9.836 25.591 11.349 25.591 C 12.864 25.591 14.092 26.82 14.092 28.333 C 14.092 29.846 12.864 31.074 11.349 31.074 Z  M 15.665 41.069 C 14.151 41.069 12.924 39.84 12.924 38.328 C 12.924 36.813 14.152 35.586 15.665 35.586 C 17.178 35.586 18.407 36.815 18.407 38.328 C 18.407 39.841 17.179 41.069 15.665 41.069 Z  M 15.665 16.661 C 17.179 16.661 18.407 17.889 18.407 19.402 C 18.407 20.916 17.179 22.144 15.665 22.144 C 14.151 22.144 12.924 20.916 12.924 19.402 C 12.924 17.888 14.151 16.661 15.665 16.661 Z " fill="rgb(76,175,80)"/></g></g></g></svg>